<?xml version="1.0" encoding="UTF-8"?>
<svg width="563px" height="360px" viewBox="0 0 563 360" version="1.1" xmlns="http://www.w3.org/2000/svg" xmlns:xlink="http://www.w3.org/1999/xlink">
    <!-- Generator: Sketch 63.1 (92452) - https://sketch.com -->
    <title>'Job Offer Letter' Powerpage</title>
    <desc>Created with Sketch.</desc>
    <g id="Powerpage" stroke="none" stroke-width="1" fill="none" fill-rule="evenodd">
        <g id="'Job-Offer-Letter'-Powerpage">
            <g id="Job-Offer-Power-page-Header-illustration">
                <path d="M524.308092,296.774412 C519.507912,284.446932 515.925432,271.363752 512.009652,257.544012 C509.370972,248.231412 505.116612,237.810672 495.893772,234.874992 C486.922392,232.019172 477.261972,237.937392 471.743052,245.565012 C466.224792,253.193292 463.444212,262.441872 458.724552,270.588912 C450.170952,285.352452 435.016692,291.540612 422.494512,278.561052 C404.606532,260.019012 396.555852,234.745632 385.212432,212.130072 C376.976952,195.711912 370.085232,176.491392 359.710032,161.360232 C343.889172,138.286632 322.197612,118.612692 293.348352,118.610052 C236.736852,118.606092 206.296992,184.951932 194.588592,231.288552 C191.874672,242.028732 168.855192,358.080492 162.659112,358.036272 C162.693432,358.036272 524.034192,360.622812 561.514272,357.970932 C562.825032,357.878532 563.455332,356.322912 562.566312,355.355352 C559.346172,351.852732 554.217972,342.538152 552.965292,341.326392 C538.989792,327.804312 530.602512,312.939132 524.308092,296.774412" id="Fill-1" fill="#DCE6EF"></path>
                <path d="M512.178018,334.33587 C511.725918,343.30527 501.965838,358.98621 492.996438,358.53411 C484.027038,358.08201 479.244018,341.66781 479.696118,332.69841 C480.148218,323.72901 489.700398,278.84439 498.670458,279.29649 C507.639858,279.74859 512.630118,325.36647 512.178018,334.33587" id="Fill-3" fill="#6AA5FE"></path>
                <line x1="498.238752" y1="285.12726" x2="493.715772" y2="357.81438" id="Stroke-5" stroke="#1A55B5" stroke-width="0.57222" stroke-linecap="round" stroke-linejoin="round"></line>
                <path d="M499.945512,332.468136 C497.902812,336.955476 496.347852,341.663916 495.408012,346.568376 C494.930832,349.055256 494.630532,351.750036 495.756492,354.018456 C496.985412,356.495436 499.713192,357.940176 502.442952,358.388316 C509.109612,359.482596 515.778912,355.399836 519.686112,349.888176 C523.593972,344.376516 525.286872,337.639896 526.839852,331.064976 C528.062832,325.887936 529.264692,320.634336 531.569412,315.809736 C532.557432,313.741296 538.343652,305.757276 535.606632,303.686196 C531.863112,300.745236 521.025252,303.944916 514.080732,311.526336 C508.359852,317.770596 503.438232,324.795636 499.945512,332.468136" id="Fill-7" fill="#FFC957"></path>
                <path d="M502.442754,358.388052 C502.442754,358.388052 510.493434,327.051912 529.925154,309.078792" id="Stroke-9" stroke="#6AA5FE" stroke-width="0.57222" stroke-linecap="round" stroke-linejoin="round"></path>
                <path d="M547.092942,325.076862 C546.403902,326.311722 545.112282,327.153222 543.939462,327.813882 C542.494062,328.627662 540.954942,329.343102 539.467302,330.036102 C537.557262,330.925122 535.581222,331.843842 533.756982,332.989602 C532.427082,333.825162 531.246342,334.767642 530.254362,335.778762 C531.820542,332.221362 533.650062,329.114742 535.806282,326.338122 C538.644282,322.685022 541.556862,320.834382 544.468122,320.834382 C544.535442,320.834382 544.602762,320.835702 544.670082,320.837682 C545.569662,320.863422 546.270582,321.086502 546.752382,321.500322 C547.741062,322.350402 547.702122,323.986542 547.092942,325.076862" id="Fill-11" fill="#1A55B5"></path>
                <path d="M550.34397,345.338796 C549.19227,346.159836 547.66503,346.367736 546.32325,346.463436 C544.66797,346.580256 542.97111,346.568376 541.32969,346.558476 C539.22297,346.543956 537.04365,346.528776 534.90525,346.783536 C533.34501,346.970316 531.87519,347.316816 530.54595,347.806536 C533.48361,345.260916 536.46615,343.236036 539.60313,341.649396 C543.73143,339.561816 547.15551,339.135456 549.78693,340.381536 C549.84765,340.409916 549.90771,340.439616 549.96777,340.470636 C550.77033,340.879176 551.30823,341.380116 551.56695,341.960916 C552.09627,343.152216 551.36169,344.613456 550.34397,345.338796" id="Fill-13" fill="#1A55B5"></path>
                <path d="M542.67048,355.30935 C541.71282,355.17801 540.85548,354.56553 540.14334,353.98407 C539.26554,353.26665 538.42734,352.46541 537.61554,351.69057 C536.57472,350.69661 535.49826,349.66767 534.31488,348.79185 C533.4516,348.15363 532.55796,347.63685 531.66762,347.25735 C534.32148,347.36889 536.75424,347.75961 539.05764,348.44007 C542.08902,349.33701 543.9918,350.73027 544.71714,352.58289 C544.73364,352.62579 544.74948,352.66869 544.76466,352.71159 C544.97256,353.29107 545.00556,353.79267 544.86168,354.20253 C544.56732,355.04337 543.51594,355.42551 542.67048,355.30935" id="Fill-15" fill="#1A55B5"></path>
                <path d="M520.847976,358.566318 C520.847976,358.566318 520.939716,339.391338 544.354536,323.112438" id="Stroke-17" stroke="#2A294F" stroke-width="0.55" stroke-linecap="round" stroke-linejoin="round"></path>
                <path d="M520.847976,358.566318 C520.847976,358.566318 528.038676,343.161918 547.527156,343.161918" id="Stroke-19" stroke="#2A294F" stroke-width="0.55" stroke-linecap="round" stroke-linejoin="round"></path>
                <path d="M531.454374,347.447826 C531.454374,347.447826 535.228254,347.171946 543.109974,353.117886" id="Stroke-21" stroke="#2A294F" stroke-width="0.55" stroke-linecap="round" stroke-linejoin="round"></path>
                <path d="M233.110812,357.998124 C223.442472,321.454584 213.720012,284.893224 202.353492,249.501384 C195.944232,229.544304 188.872992,209.664444 179.049552,193.698384 C169.226112,177.732984 156.210912,165.953304 143.146212,166.035373 C123.014232,169.931124 110.026752,189.809664 101.509452,211.825284 C95.924532,226.261464 93.217212,243.750804 89.265792,259.007364 C83.823432,280.021764 80.968272,302.881524 70.513212,321.271104 C63.194472,334.143084 51.942792,330.858264 44.359392,319.294404 C40.174332,312.912864 37.222812,305.320224 32.537472,299.493744 C27.852132,293.667264 20.463432,289.872924 14.515512,293.544504 C8.399952,297.319044 6.571092,306.871224 5.748072,315.249924 C4.527072,327.684324 3.457872,339.438924 1.456092,350.707764 C1.020492,353.160984 0.535392,355.589124 0.000132,357.998124 L233.110812,357.998124 Z" id="Fill-23" fill="#DCE6EF"></path>
                <path d="M78.30669,332.265582 C75.22515,328.711482 71.32389,325.643802 70.09431,321.158442 C69.19539,317.880882 69.90489,314.412582 70.25535,311.032722 C70.60647,307.652862 70.48305,303.915282 68.29647,301.314222 C66.49467,299.169882 63.64875,298.239282 60.91107,297.650562 C58.17339,297.062502 55.31625,296.690262 52.88679,295.297662 C48.94197,293.035842 49.72803,289.188042 47.61009,285.813462 C45.23409,282.027042 39.70527,277.196502 34.96581,279.711762 C29.94717,282.374862 30.74247,290.460522 34.08075,294.030462 C36.29505,296.398542 39.13107,298.670922 39.45645,301.897002 C39.94683,306.753282 34.38237,311.125782 35.91291,315.761622 C37.04349,319.185702 41.35923,320.361822 43.49037,323.270442 C45.59841,326.147382 45.17403,330.179322 43.93257,333.523542 C42.69111,336.867102 40.73619,339.959202 39.96333,343.441362 C38.38329,350.567382 43.97415,355.490982 50.34513,357.079602 C56.19867,358.539522 68.82447,357.850482 68.82447,357.850482 C73.33029,356.274402 78.32517,352.316382 80.80215,347.992062 C82.67391,344.724402 82.93263,340.582242 81.48261,337.106682 C80.73549,335.316102 79.59237,333.748602 78.30669,332.265582" id="Fill-25" fill="#FFC957"></path>
                <path d="M40.57614,287.39733 C40.57614,287.39733 62.1324,320.69499 64.47738,357.66687" id="Stroke-27" stroke="#6AA5FE" stroke-width="0.66" stroke-linecap="round" stroke-linejoin="round"></path>
                <path d="M21.376212,332.309076 C21.708192,332.023956 22.191312,331.870176 22.811712,331.852356 C22.857912,331.850376 22.904112,331.850376 22.950312,331.850376 C24.956712,331.850376 26.963772,333.125496 28.919352,335.642736 C30.405012,337.556076 31.665612,339.696456 32.744712,342.147696 C32.061612,341.451396 31.248492,340.801956 30.331092,340.225776 C29.074452,339.436416 27.712872,338.802816 26.396172,338.190996 C25.371192,337.713156 24.310572,337.220136 23.314632,336.659136 C22.506792,336.204396 21.616452,335.624256 21.141912,334.773516 C20.721492,334.021776 20.695092,332.894496 21.376212,332.309076" id="Fill-29" fill="#6AA5FE"></path>
                <path d="M18.058788,346.407864 C18.236988,346.007904 18.607908,345.662724 19.160328,345.380904 C19.201908,345.359784 19.243488,345.339324 19.285068,345.319524 C21.098088,344.460864 23.458248,344.754564 26.302848,346.193364 C28.464348,347.286984 30.519588,348.682224 32.543808,350.435844 C31.628388,350.098584 30.615288,349.859664 29.540148,349.731624 C28.066368,349.555404 26.564868,349.565964 25.112868,349.575864 C23.982288,349.583124 22.812768,349.591044 21.672288,349.510524 C20.747628,349.444524 19.694928,349.301304 18.900948,348.735684 C18.200028,348.236064 17.693808,347.228904 18.058788,346.407864" id="Fill-31" fill="#6AA5FE"></path>
                <path d="M22.679118,354.843588 C22.580118,354.561108 22.602558,354.215268 22.745778,353.815968 C22.756338,353.786268 22.767558,353.756568 22.778778,353.726868 C23.278398,352.450428 24.589818,351.490788 26.678718,350.873028 C28.266018,350.403768 29.942418,350.134488 31.771278,350.057928 C31.157478,350.319288 30.541698,350.675028 29.947038,351.115248 C29.131278,351.718488 28.389438,352.427328 27.672018,353.113068 C27.112998,353.646348 26.535498,354.198768 25.930278,354.693108 C25.439898,355.093728 24.849198,355.515468 24.189198,355.606548 C23.606418,355.686408 22.882398,355.422408 22.679118,354.843588" id="Fill-33" fill="#6AA5FE"></path>
                <path d="M39.226836,357.850548 C39.226836,357.850548 39.163476,344.637348 23.029116,333.419328" id="Stroke-35" stroke="#2A294F" stroke-width="0.55" stroke-linecap="round" stroke-linejoin="round"></path>
                <path d="M39.226836,357.850548 C39.226836,357.850548 34.272216,347.235768 20.842536,347.235768" id="Stroke-37" stroke="#2A294F" stroke-width="0.55" stroke-linecap="round" stroke-linejoin="round"></path>
                <path d="M31.918194,350.189136 C31.918194,350.189136 29.317794,349.999056 23.886654,354.096336" id="Stroke-39" stroke="#2A294F" stroke-width="0.55" stroke-linecap="round" stroke-linejoin="round"></path>
                <path d="M334.911324,123.312618 C334.911324,150.731658 312.683844,172.958478 285.264804,172.958478 C257.846424,172.958478 235.618944,150.731658 235.618944,123.312618 C235.618944,95.893578 257.846424,73.666098 285.264804,73.666098 C312.683844,73.666098 334.911324,95.893578 334.911324,123.312618" id="Fill-41" fill="#FFE26B"></path>
                <path d="M252.899856,65.955846 L254.919456,70.047186 C254.952456,70.114506 255.016476,70.161366 255.091056,70.171926 L259.606116,70.827966 C259.792896,70.855026 259.868136,71.085366 259.732836,71.217366 L256.465176,74.401866 C256.411716,74.454006 256.387296,74.529906 256.399836,74.603826 L257.170716,79.100406 C257.203056,79.287186 257.007696,79.429086 256.840056,79.341306 L252.801516,77.218086 C252.734856,77.183106 252.655656,77.183106 252.588996,77.218086 L248.551116,79.341306 C248.383476,79.429086 248.188116,79.287186 248.219796,79.100406 L248.991336,74.603826 C249.003876,74.529906 248.979456,74.454006 248.925996,74.401866 L245.658336,71.217366 C245.523036,71.085366 245.597616,70.855026 245.784396,70.827966 L250.300116,70.171926 C250.374036,70.161366 250.438716,70.114506 250.471716,70.047186 L252.490656,65.955846 C252.574476,65.786226 252.816696,65.786226 252.899856,65.955846" id="Fill-43" fill="#FFCC01"></path>
                <path d="M252.695256,66.900834 L250.896096,70.386294 C250.801716,70.569114 250.620216,70.691214 250.415616,70.709694 L246.508416,71.066754 L250.636056,71.259474 C250.898736,71.272014 251.138316,71.112954 251.229396,70.866774 L252.695256,66.900834 Z" id="Fill-45" fill="#FFDB53"></path>
                <path d="M248.308566,78.58323 L248.220126,79.10067 C248.187786,79.28679 248.383146,79.42935 248.550786,79.34091 L252.589326,77.21769 C252.655326,77.18271 252.735186,77.18271 252.801846,77.21769 L256.839726,79.34091 C257.007366,79.42935 257.202726,79.28679 257.171046,79.10067 L256.399506,74.60343 C256.386966,74.52951 256.411386,74.45427 256.464846,74.40213 L259.732506,71.21697 C259.867806,71.08497 259.793226,70.85529 259.605786,70.82823 L258.093726,70.60845 C255.647766,74.99811 251.902266,77.30943 248.308566,78.58323" id="Fill-47" fill="#FCBD11"></path>
                <path d="M293.873052,88.48785 L295.892652,92.57919 C295.925652,92.64651 295.989672,92.69337 296.064252,92.70393 L300.579312,93.35997 C300.766092,93.38703 300.841332,93.61737 300.706032,93.74937 L297.438372,96.93387 C297.384912,96.98601 297.360492,97.06191 297.373032,97.13583 L298.143912,101.63241 C298.176252,101.81919 297.980892,101.96109 297.813252,101.87331 L293.774712,99.75009 C293.708052,99.71511 293.628852,99.71511 293.562192,99.75009 L289.524312,101.87331 C289.356672,101.96109 289.161312,101.81919 289.192992,101.63241 L289.964532,97.13583 C289.977072,97.06191 289.952652,96.98601 289.899192,96.93387 L286.631532,93.74937 C286.496232,93.61737 286.570812,93.38703 286.758252,93.35997 L291.273312,92.70393 C291.347232,92.69337 291.411912,92.64651 291.444912,92.57919 L293.463852,88.48785 C293.547672,88.31823 293.789892,88.31823 293.873052,88.48785" id="Fill-49" fill="#FFCC01"></path>
                <path d="M293.668716,89.432838 L291.868896,92.918298 C291.774516,93.101118 291.593676,93.223218 291.388416,93.241698 L287.481876,93.598758 L291.609516,93.791478 C291.871536,93.804018 292.111776,93.644958 292.202856,93.398778 L293.668716,89.432838 Z" id="Fill-51" fill="#FFDB53"></path>
                <path d="M289.281762,101.115234 L289.193322,101.632674 C289.160982,101.818794 289.357002,101.961354 289.523982,101.872914 L293.562522,99.749694 C293.628522,99.714714 293.708382,99.714714 293.775042,99.749694 L297.812922,101.872914 C297.980562,101.961354 298.175922,101.818794 298.144242,101.632674 L297.372702,97.135434 C297.360162,97.061514 297.384582,96.986274 297.438702,96.934134 L300.705702,93.748974 C300.841002,93.616974 300.766422,93.387294 300.579642,93.360234 L299.066922,93.140454 C296.620962,97.530114 292.875462,99.841434 289.281762,101.115234" id="Fill-53" fill="#FCBD11"></path>
                <path d="M257.780886,104.383422 C257.780886,105.563502 256.824546,106.519842 255.644466,106.519842 C254.465046,106.519842 253.508046,105.563502 253.508046,104.383422 C253.508046,103.203342 254.465046,102.247002 255.644466,102.247002 C256.824546,102.247002 257.780886,103.203342 257.780886,104.383422" id="Fill-55" fill="#FFE366"></path>
                <path d="M275.023122,82.661238 C275.023122,83.251278 274.544622,83.729118 273.955242,83.729118 C273.365202,83.729118 272.886702,83.251278 272.886702,82.661238 C272.886702,82.071198 273.365202,81.593358 273.955242,81.593358 C274.544622,81.593358 275.023122,82.071198 275.023122,82.661238" id="Fill-57" fill="#FFE366"></path>
                <path d="M316.206066,108.53733 L318.291006,112.76199 C318.325326,112.83129 318.391986,112.87947 318.468546,112.89069 L323.130786,113.56851 C323.323506,113.59623 323.400726,113.83383 323.260806,113.96979 L319.887546,117.25857 C319.832106,117.31269 319.807026,117.39057 319.819566,117.46713 L320.616186,122.11023 C320.649186,122.30295 320.447226,122.44947 320.274306,122.35839 L316.104426,120.16653 C316.035786,120.13023 315.953946,120.13023 315.885306,120.16653 L311.715426,122.35839 C311.542506,122.44947 311.340546,122.30295 311.373546,122.11023 L312.170166,117.46713 C312.182706,117.39057 312.157626,117.31269 312.102186,117.25857 L308.728266,113.96979 C308.588346,113.83383 308.666226,113.59623 308.858946,113.56851 L313.521186,112.89069 C313.597746,112.87947 313.664406,112.83129 313.698726,112.76199 L315.783666,108.53733 C315.870126,108.36243 316.119606,108.36243 316.206066,108.53733" id="Fill-59" fill="#FFCC01"></path>
                <path d="M315.994668,109.513206 L314.136768,113.112186 C314.039088,113.300946 313.852308,113.427006 313.640448,113.446146 L309.606528,113.814426 L313.868808,114.013746 C314.139408,114.026286 314.386908,113.862606 314.481288,113.607846 L315.994668,109.513206 Z" id="Fill-61" fill="#FFDB53"></path>
                <path d="M311.46522,121.576026 L311.37348,122.110626 C311.34048,122.302686 311.54244,122.449206 311.71536,122.358786 L315.88524,120.166266 C315.95388,120.129966 316.03572,120.129966 316.10436,120.166266 L320.27424,122.358786 C320.44716,122.449206 320.64912,122.302686 320.61612,122.110626 L319.8195,117.466866 C319.80696,117.390306 319.83204,117.312426 319.88748,117.258306 L323.2614,113.970186 C323.40066,113.833566 323.32344,113.596626 323.13072,113.568246 L321.56916,113.341206 C319.04334,117.874086 315.17574,120.260646 311.46522,121.576026" id="Fill-63" fill="#FCBD11"></path>
                <path d="M309.725328,89.89299 C309.725328,90.48303 309.246828,90.96087 308.657448,90.96087 C308.067408,90.96087 307.588908,90.48303 307.588908,89.89299 C307.588908,89.30295 308.067408,88.82511 308.657448,88.82511 C309.246828,88.82511 309.725328,89.30295 309.725328,89.89299" id="Fill-65" fill="#FFE366"></path>
                <path d="M311.861616,143.243628 C311.861616,144.423708 310.905276,145.380048 309.725196,145.380048 C308.545776,145.380048 307.588776,144.423708 307.588776,143.243628 C307.588776,142.063548 308.545776,141.107208 309.725196,141.107208 C310.905276,141.107208 311.861616,142.063548 311.861616,143.243628" id="Fill-67" fill="#FFE366"></path>
                <path d="M260.062242,139.038438 L263.238162,145.474098 C263.290962,145.579698 263.391282,145.652958 263.508762,145.670118 L270.610362,146.702358 C270.904722,146.745258 271.022202,147.106278 270.809022,147.314178 L265.670262,152.323578 C265.585782,152.406078 265.546842,152.524878 265.566642,152.641038 L266.780382,159.714258 C266.830542,160.007298 266.522982,160.231038 266.259642,160.092438 L259.907802,156.752838 C259.802862,156.698058 259.678122,156.698058 259.573842,156.752838 L253.221342,160.092438 C252.958002,160.231038 252.650442,160.007298 252.700602,159.714258 L253.914342,152.641038 C253.934142,152.524878 253.895202,152.406078 253.810722,152.323578 L248.671962,147.314178 C248.458782,147.106278 248.576262,146.745258 248.870622,146.702358 L255.972882,145.670118 C256.089042,145.652958 256.190682,145.579698 256.242822,145.474098 L259.418742,139.038438 C259.550742,138.771798 259.930902,138.771798 260.062242,139.038438" id="Fill-69" fill="#FFCC01"></path>
                <path d="M259.740624,140.524956 L256.909884,146.006916 C256.761384,146.294676 256.476924,146.486736 256.154184,146.515776 L250.008924,147.076776 L256.502004,147.380376 C256.913844,147.400176 257.291364,147.150036 257.434584,146.762616 L259.740624,140.524956 Z" id="Fill-71" fill="#FFDB53"></path>
                <path d="M252.840588,158.900346 L252.700668,159.714126 C252.650508,160.007166 252.958068,160.230906 253.221408,160.092306 L259.573908,156.752706 C259.678188,156.697926 259.802928,156.697926 259.907868,156.752706 L266.259708,160.092306 C266.522388,160.230906 266.830608,160.007166 266.780448,159.714126 L265.566708,152.640906 C265.546908,152.524746 265.585848,152.405946 265.669668,152.323446 L270.809088,147.314046 C271.022268,147.106806 270.904788,146.745126 270.610428,146.702226 L268.231788,146.356386 C264.383988,153.261306 258.492828,156.896586 252.840588,158.900346" id="Fill-73" fill="#FCBD11"></path>
                <g id="Group-31" transform="translate(315.000000, 157.000000)">
                    <path d="M6.17271388,0.103296344 L7.87753273,3.42752952 C7.90552124,3.48207545 7.95972683,3.51991668 8.02243525,3.52878039 L11.8348949,4.0619668 C11.9929059,4.08378517 12.0559686,4.27060496 11.9415346,4.37799225 L9.18307252,6.96551454 C9.13772406,7.00812854 9.11682125,7.0691518 9.1274498,7.12949322 L9.7789797,10.7830474 C9.80590535,10.9344124 9.64080859,11.0496406 9.49944892,10.97839 L6.08945693,9.25337515 C6.03347992,9.22507946 5.96652008,9.22507946 5.91054307,9.25337515 L2.50055108,10.97839 C2.35919141,11.0496406 2.19409465,10.9344124 2.2210203,10.7830474 L2.8725502,7.12949322 C2.88317875,7.0691518 2.86227594,7.00812854 2.81692748,6.96551454 L0.0584653824,4.37799225 C-0.0559686345,4.27060496 0.0070940745,4.08378517 0.165105132,4.0619668 L3.97756475,3.52878039 C4.03991889,3.51991668 4.09447876,3.48207545 4.12246727,3.42752952 L5.82728612,0.103296344 C5.8981431,-0.0344321147 6.1018569,-0.0344321147 6.17271388,0.103296344" id="Fill-75" fill="#FFCC01"></path>
                    <path d="M6,1 L4.54560868,3.39857681 C4.46931163,3.52448333 4.32316039,3.60851726 4.15734147,3.62122342 L1,3.86668336 L4.33604612,3.99952051 C4.54764327,4.0081838 4.74160732,3.89873755 4.81519159,3.7292258 L6,1 Z" id="Fill-77" fill="#FFDB53"></path>
                    <path d="M3.07152016,10.2834641 L3.00274,10.7559734 C2.97764012,10.9261227 3.12986922,11.056034 3.25960621,10.975558 L6.39709017,9.03646882 C6.44859381,9.00466162 6.51020258,9.00466162 6.56203219,9.03646882 L9.69951614,10.975558 C9.82925314,11.056034 9.98115626,10.9261227 9.95638236,10.7559734 L9.35724517,6.64901321 C9.34714002,6.58156663 9.36637239,6.51258717 9.40809685,6.46468478 L11.9464436,3.55605106 C12.0514067,3.43572023 11.9933836,3.22571611 11.848,3.20080686 L10.6731956,3 C8.7731027,7.00923926 5.86314745,9.1200106 3.07152016,10.2834641" id="Fill-79" fill="#FCBD11"></path>
                </g>
                <polygon id="Fill-81" fill="#C35F54" points="366.000624 348.85323 355.804944 348.85323 354.551604 325.24173 364.747944 325.24173"></polygon>
                <polygon id="Fill-83" fill="#C35F54" points="417.430992 348.85323 407.234652 348.85323 403.237032 325.24173 413.432712 325.24173"></polygon>
                <path d="M406.566798,347.672688 L418.021098,347.672688 C418.438218,347.672688 418.785378,347.962428 418.856658,348.368988 L420.438018,357.431448 C420.601698,358.371948 419.820918,359.261628 418.858638,359.245128 C414.862998,359.176488 412.931178,358.941528 407.894058,358.941528 C404.794698,358.941528 396.435798,359.263608 392.157018,359.263608 C387.970638,359.263608 387.519858,355.031688 389.289978,354.648888 C397.228458,352.930248 402.258978,350.560188 404.881818,348.299688 C405.355038,347.891808 405.956958,347.672688 406.566798,347.672688" id="Fill-85" fill="#263238"></path>
                <path d="M355.54629,347.672688 L366.68049,347.672688 C367.09761,347.672688 367.44477,347.962428 367.51539,348.368988 L369.09741,357.431448 C369.26109,358.371288 368.50539,359.261628 367.54377,359.245128 C363.53097,359.177148 357.73749,358.941528 352.68915,358.941528 C346.78677,358.941528 345.28791,359.263608 338.36517,359.263608 C334.17945,359.263608 333.21915,355.031688 334.98993,354.648888 C343.04919,352.903848 345.95715,352.717068 353.05215,348.466668 C353.82303,348.005328 354.66651,347.672688 355.54629,347.672688" id="Fill-87" fill="#263238"></path>
                <path d="M355.229226,75.513834 L341.297946,71.444934 C341.297946,71.444934 327.100686,105.161694 322.297866,107.365434 C315.762546,110.364474 298.309506,119.562894 290.936646,123.905694 C290.430426,125.564934 290.427126,130.130814 291.227046,131.458734 C303.327486,130.492494 328.141506,122.284074 332.913306,117.708294 C343.793406,107.275674 355.229226,75.513834 355.229226,75.513834" id="Fill-89" fill="#C35F54"></path>
                <path d="M359.447352,69.154734 C363.406692,77.972334 336.245712,116.666814 336.245712,116.666814 L323.036472,102.979734 C323.036472,102.979734 334.701312,73.702134 341.005632,62.460354 C347.478912,50.917614 355.102572,59.477814 359.447352,69.154734" id="Fill-93" fill="#FFFFFF"></path>
                <path d="M322.089042,101.776026 C321.262722,102.262446 319.493922,105.492486 319.093302,107.091006 C318.692682,108.689526 327.985482,121.092906 331.590402,120.588666 C335.194662,120.085086 339.321642,116.578506 340.061502,114.682986 C340.802022,112.787466 323.836722,100.747746 322.089042,101.776026" id="Fill-95" fill="#FFFFFF"></path>
                <path d="M292.484082,123.152304 L284.032122,121.629024 L284.539002,133.662804 C284.539002,133.662804 287.491842,134.852124 293.844342,130.919184 L292.484082,123.152304 Z" id="Fill-97" fill="#C35F54"></path>
                <polygon id="Fill-99" fill="#C35F54" points="273.95511 125.61582 275.48433 132.98406 284.53887 133.66254 284.03199 121.62876"></polygon>
                <path d="M346.488714,57.112176 C346.488714,57.112176 332.887434,92.148276 341.580954,149.486436 L396.115434,149.486436 C396.890934,141.114996 393.678054,96.031056 403.634154,56.586816 C403.634154,56.586816 394.376334,54.710436 385.488774,54.281436 C378.536994,53.945496 368.458794,53.723076 362.306274,54.282096 C354.194874,55.019316 346.488714,57.112176 346.488714,57.112176" id="Fill-101" fill="#407BFF"></path>
                <path d="M346.488714,57.112176 C346.488714,57.112176 332.887434,92.148276 341.580954,149.486436 L396.115434,149.486436 C396.890934,141.114996 393.678054,96.031056 403.634154,56.586816 C403.634154,56.586816 394.376334,54.710436 385.488774,54.281436 C378.536994,53.945496 368.458794,53.723076 362.306274,54.282096 C354.194874,55.019316 346.488714,57.112176 346.488714,57.112176" id="Fill-103" fill="#FFC957"></path>
                <path d="M391.323636,66.32538 C390.105936,72.81648 391.412076,88.34826 396.738276,106.29498 C397.416096,92.4825 399.011316,76.4676 402.690156,60.51078 L402.693456,60.43356 C399.118236,60.0666 392.483256,60.24018 391.323636,66.32538" id="Fill-105" fill="#FFAA00"></path>
                <path d="M383.493198,32.600568 C381.674898,40.059888 380.508018,49.304508 385.488378,54.281568 C385.488378,54.281568 382.130298,61.847808 368.270298,61.847808 C355.604898,61.847808 362.306538,54.282228 362.306538,54.282228 C370.718898,52.295628 370.775658,42.010188 369.604158,36.214728 L383.493198,32.600568 Z" id="Fill-107" fill="#C35F54"></path>
                <path d="M368.28,61.847874 C376.44948,64.400754 378.07044,67.020954 378.07044,67.020954 C378.07044,67.020954 388.2384,62.888034 387.8556,53.916654 C387.8556,53.916654 386.02146,52.512834 383.87316,51.617214 C383.87316,51.617214 383.06334,58.254174 368.28,61.847874" id="Fill-109" fill="#FFFFFF"></path>
                <path d="M368.28,61.847874 C363.70224,62.285454 359.84124,66.205194 359.84124,66.205194 C359.84124,66.205194 356.93658,63.152034 359.72046,54.282294 C359.72046,54.282294 362.44956,53.352354 364.69686,52.869234 C364.69686,52.869234 362.89572,59.927934 368.28,61.847874" id="Fill-111" fill="#FFFFFF"></path>
                <path d="M369.596436,36.220338 C370.297356,39.615378 370.562676,44.555478 368.956236,48.465978 C370.189776,48.285138 371.460276,47.909598 372.726156,47.325498 C377.521716,45.113178 379.998036,41.633658 382.651896,36.471138 C382.896096,35.148498 383.180556,33.854238 383.490096,32.602218 L369.596436,36.220338 Z" id="Fill-113" fill="#000000"></path>
                <path d="M367.984188,8.777208 C364.725768,9.843108 357.434748,16.090668 364.335048,19.252728 C371.236008,22.414788 373.660188,6.920628 367.984188,8.777208" id="Fill-115" fill="#263238"></path>
                <path d="M389.97849,23.509398 C386.80323,33.287298 385.43241,39.149418 379.18947,43.159578 C369.79965,49.192638 358.95519,42.026358 359.20335,31.628058 C359.42577,22.267938 364.58103,7.850238 375.14169,5.991018 C385.54593,4.159518 393.15375,13.731498 389.97849,23.509398" id="Fill-117" fill="#C35F54"></path>
                <path d="M374.661804,12.771264 C369.266304,13.682064 364.769724,13.402224 363.136224,8.917524 C361.502724,4.432824 368.929704,-0.261756 374.045364,1.840344 C377.829144,-2.084016 388.129764,0.928884 389.460984,4.713324 C395.486784,4.327884 401.127804,11.225544 397.063524,14.768424 C400.147044,16.559004 402.284124,22.054824 398.289804,25.926384 C400.041444,31.129824 393.735144,36.315444 388.756764,34.213344 C383.854944,32.741544 381.183264,33.950664 380.501484,30.778044 C379.861284,27.801444 381.541644,24.560184 385.712184,23.947704 C383.604804,21.425184 383.084724,17.447364 384.555864,15.739944 C379.440864,18.026844 375.306624,15.153864 374.661804,12.771264" id="Fill-119" fill="#263238"></path>
                <path d="M368.185554,33.855888 C371.403054,34.109988 373.406814,32.242848 373.497894,32.155728 C373.595574,32.063328 373.600854,31.910868 373.510434,31.815168 C373.420014,31.719468 373.267554,31.718148 373.169874,31.810548 C373.146774,31.831668 370.867794,33.960828 367.346694,33.250668 C367.216014,33.223608 367.087974,33.308748 367.058934,33.440088 C367.029894,33.570768 367.111734,33.697488 367.241754,33.723228 C367.567134,33.788568 367.881954,33.832128 368.185554,33.855888" id="Fill-121" fill="#263238"></path>
                <path d="M390.54081,36.986202 C388.34961,38.718702 385.60533,39.319302 383.38443,39.069162 C380.04351,38.693622 379.78215,35.398242 381.89085,32.899482 C383.78901,30.650862 387.81369,28.136922 390.59889,29.766462 C393.34383,31.371582 393.04617,35.005542 390.54081,36.986202" id="Fill-123" fill="#C35F54"></path>
                <path d="M377.4243,149.486436 C377.4243,149.486436 376.04094,162.302976 374.26092,179.684736 C372.23142,199.375176 369.70362,224.938956 368.09652,244.420836 C368.09388,244.519176 368.0787,244.602336 368.07672,244.686156 C367.76784,248.387436 367.49262,251.852436 367.26558,255.025056 C364.98396,286.795476 369.11952,342.701436 369.11952,342.701436 L354.12432,342.701436 C354.12432,342.701436 335.86806,257.971956 336.25614,225.630636 C336.62904,194.542656 341.5764,149.486436 341.5764,149.486436 L377.4243,149.486436 Z" id="Fill-125" fill="#4A3D99"></path>
                <path d="M374.26059,179.684538 C372.23109,199.375638 369.70329,224.938758 368.09619,244.421298 C368.09421,244.518978 368.07837,244.602798 368.07639,244.685958 C364.27479,226.219818 363.09603,203.243898 364.57179,165.420618 L374.26059,179.684538 Z" id="Fill-127" fill="#000000"></path>
                <path d="M360.926544,149.486436 C360.926544,149.486436 366.196644,205.379856 371.155884,234.570996 C376.587024,266.537436 404.386224,342.701436 404.386224,342.701436 L420.459864,342.701436 C420.459864,342.701436 406.745724,286.897116 404.286564,255.246816 C401.617524,220.896456 396.115764,149.486436 396.115764,149.486436 L360.926544,149.486436 Z" id="Fill-129" fill="#4A3D99"></path>
                <path d="M373.040514,23.049576 C372.830634,23.856096 372.240594,24.418416 371.721834,24.305556 C371.203074,24.192036 370.952934,23.446236 371.162814,22.639056 C371.372694,21.832536 371.963394,21.270216 372.481494,21.383736 C372.999594,21.496596 373.250394,22.243056 373.040514,23.049576" id="Fill-131" fill="#263238"></path>
                <path d="M364.074744,21.090102 C363.864864,21.896622 363.274824,22.458942 362.756064,22.345422 C362.237964,22.232562 361.987164,21.486762 362.197044,20.679582 C362.406924,19.873062 362.997624,19.310742 363.515724,19.424262 C364.034484,19.537122 364.284624,20.282922 364.074744,21.090102" id="Fill-133" fill="#263238"></path>
                <path d="M368.262906,22.114422 C368.262906,22.114422 365.248686,26.374722 362.679306,28.186422 C363.735966,29.825202 366.280266,29.738082 366.280266,29.738082 L368.262906,22.114422 Z" id="Fill-135" fill="#000000"></path>
                <path d="M377.948604,20.698788 C377.808024,20.667768 377.685264,20.572728 377.626524,20.429508 C376.810104,18.470628 375.071664,18.197388 375.053184,18.196068 C374.806344,18.170328 374.620224,17.913588 374.670384,17.647608 C374.719884,17.382948 374.972664,17.198148 375.234024,17.235768 C375.326424,17.248308 377.505744,17.587548 378.517524,20.020308 C378.618504,20.263188 378.500364,20.551608 378.254844,20.663808 C378.154524,20.710668 378.046944,20.720568 377.948604,20.698788" id="Fill-137" fill="#263238"></path>
                <path d="M362.331288,16.977972 C362.263968,16.958832 362.199948,16.924512 362.146488,16.873032 C361.956408,16.695492 361.953108,16.389912 362.139228,16.189272 C364.003068,14.186832 366.188988,14.495052 366.280728,14.508912 C366.537468,14.537952 366.711048,14.794032 366.659568,15.060012 C366.607428,15.324012 366.355968,15.506172 366.095268,15.467892 C366.022668,15.457332 364.315248,15.235572 362.827608,16.833432 C362.694948,16.977312 362.499588,17.026812 362.331288,16.977972" id="Fill-139" fill="#263238"></path>
                <path d="M409.6818,70.511298 L396.79926,78.297318 C396.79926,78.297318 411.22422,109.472418 411.09816,114.706218 C410.86254,124.487418 415.07334,145.695198 413.93616,156.867018 C415.5195,157.431978 419.96724,157.564638 421.31232,156.781878 C423.8718,146.672658 427.40676,120.126138 426.38244,113.475318 C424.15956,99.039798 409.6818,70.511298 409.6818,70.511298" id="Fill-141" fill="#C35F54"></path>
                <path d="M426.891894,106.664844 L409.143834,113.357904 C409.143834,113.357904 393.695874,86.961864 389.858634,75.156444 C385.838574,62.786724 393.359934,55.081884 403.634154,56.586684 C413.214054,57.989844 426.891894,106.664844 426.891894,106.664844 Z" id="Fill-145" fill="#FFFFFF"></path>
                <path d="M401.695734,347.34348 C401.569674,347.34348 401.462754,347.36262 401.379594,347.4042 C401.312934,347.43786 401.234394,347.4999 401.214594,347.68668 C401.171694,348.07146 401.264094,348.35856 401.499714,348.56448 C402.033654,349.03374 403.362894,349.09644 405.110574,348.7473 C403.991874,348.08136 402.477174,347.34348 401.695734,347.34348 M403.110114,349.45284 C402.333954,349.45284 401.614554,349.32084 401.171694,348.93408 C400.820574,348.62652 400.673394,348.1962 400.733454,347.65698 C400.777014,347.25504 400.999434,347.0643 401.179614,346.97388 C402.322734,346.39638 405.526374,348.41532 405.888054,348.64698 C405.967254,348.69978 406.006194,348.79614 405.986394,348.8925 C405.965934,348.98688 405.890034,349.0641 405.794994,349.08654 C405.078234,349.25814 404.052594,349.45284 403.110114,349.45284" id="Fill-147" fill="#FFFFFF"></path>
                <path d="M403.87809,344.960814 C403.84179,344.960814 403.80615,344.964774 403.76787,344.968074 C403.45239,345.005694 403.41807,345.151554 403.40421,345.211614 C403.24383,345.883494 404.46285,347.571774 405.47331,348.367734 C405.39609,347.507754 405.15255,345.792414 404.42259,345.172014 C404.25561,345.030774 404.07741,344.960814 403.87809,344.960814 M405.73797,349.094394 C405.69837,349.094394 405.65943,349.085154 405.62445,349.066014 C404.59617,348.492474 402.66369,346.259034 402.93363,345.121194 C402.98247,344.915274 403.15077,344.558874 403.73289,344.488914 C404.11305,344.442054 404.45031,344.547654 404.74599,344.798454 C405.88449,345.766674 405.98745,348.709614 405.99141,348.833694 C405.99471,348.922794 405.94785,349.007274 405.87129,349.054794 C405.83037,349.081194 405.78417,349.094394 405.73797,349.094394" id="Fill-149" fill="#FFFFFF"></path>
                <path d="M349.476138,347.34348 C349.288698,347.34348 349.133598,347.37186 349.021398,347.43192 C348.922398,347.4867 348.872238,347.56458 348.857058,347.69064 C348.816798,348.01734 348.899958,348.27144 349.111158,348.46812 C349.711758,349.0245 351.385518,349.11888 353.653938,348.74532 C352.275858,348.07344 350.441058,347.34348 349.476138,347.34348 M351.220518,349.45482 C350.208078,349.45482 349.280118,349.2984 348.773238,348.82848 C348.451158,348.53016 348.317838,348.13416 348.377238,347.65302 C348.412878,347.36592 348.561378,347.1435 348.806238,347.0115 C350.076078,346.3152 354.076338,348.39816 354.529098,348.63774 C354.617538,348.6846 354.664398,348.78492 354.644598,348.88656 C354.625458,348.98886 354.544938,349.06938 354.443298,349.0905 C353.570778,349.2621 352.343838,349.45482 351.220518,349.45482" id="Fill-151" fill="#FFFFFF"></path>
                <path d="M352.105512,344.960814 C352.058652,344.960814 352.009152,344.964774 351.959652,344.968074 C351.523392,345.013614 351.487092,345.183234 351.475212,345.239994 C351.331332,345.932334 352.904772,347.664174 354.124452,348.419214 C354.032052,347.617314 353.746932,345.973914 352.929192,345.275634 C352.683012,345.064434 352.412412,344.960814 352.105512,344.960814 M354.395712,349.094394 C354.362052,349.094394 354.329052,349.086474 354.298032,349.073274 C353.094192,348.520854 350.761092,346.317114 351.002652,345.162774 C351.059412,344.892834 351.267312,344.554914 351.933912,344.488914 C352.420992,344.428854 352.873092,344.578014 353.253252,344.902074 C354.499332,345.967974 354.643212,348.712914 354.649152,348.830394 C354.652452,348.914874 354.610872,348.998034 354.538932,349.048854 C354.496032,349.079214 354.445872,349.094394 354.395712,349.094394" id="Fill-153" fill="#FFFFFF"></path>
                <path d="M453.330702,216.116208 L387.680502,224.683008 C386.207382,224.875728 384.845142,223.827648 384.653082,222.355188 L378.862902,177.981408 C378.670842,176.508288 379.718262,175.146708 381.190722,174.953988 L446.840922,166.387188 C448.314042,166.195128 449.676282,167.242548 449.868342,168.715668 L455.659182,213.089448 C455.851242,214.561908 454.803162,215.924148 453.330702,216.116208" id="Fill-155" fill="#263238"></path>
                <path d="M453.330702,216.116208 L387.680502,224.683008 C386.207382,224.875728 384.845142,223.827648 384.653082,222.355188 L378.862902,177.981408 C378.670842,176.508288 379.718262,175.146708 381.190722,174.953988 L446.840922,166.387188 C448.314042,166.195128 449.676282,167.242548 449.868342,168.715668 L455.659182,213.089448 C455.851242,214.561908 454.803162,215.924148 453.330702,216.116208" id="Fill-157" fill="#000000"></path>
                <path d="M423.889158,163.19985 C423.805338,163.19985 423.720858,163.20645 423.636378,163.21701 L409.786278,165.02409 C408.719058,165.16335 407.964678,166.14543 408.103938,167.21331 L409.189638,175.53063 C409.256298,176.04411 409.522278,176.50281 409.937418,176.82159 C410.353218,177.14169 410.862738,177.28227 411.378198,177.21297 L425.228298,175.40655 C426.295518,175.26729 427.050558,174.28587 426.910638,173.21733 L425.824938,164.90001 C425.758278,164.38587 425.492298,163.92783 425.077158,163.60905 C424.729998,163.34175 424.316178,163.19985 423.889158,163.19985 L423.889158,163.19985 Z M411.120138,179.93811 C410.099778,179.93811 409.112418,179.60283 408.286758,178.96857 C407.298738,178.20759 406.665138,177.11133 406.504758,175.88043 L405.419058,167.56245 C405.087078,165.01551 406.888878,162.67185 409.437138,162.33921 L423.286578,160.53213 C424.522098,160.37571 425.739138,160.70175 426.727818,161.46207 C427.715838,162.22305 428.349438,163.31931 428.510478,164.55021 L429.595518,172.86753 C429.927498,175.41513 428.125698,177.75879 425.578098,178.09143 L411.727998,179.89851 C411.524718,179.92425 411.321438,179.93811 411.120138,179.93811 L411.120138,179.93811 Z" id="Fill-159" fill="#263238"></path>
                <path d="M459.156654,215.35602 L393.505794,223.92282 C392.033334,224.11488 390.671094,223.06746 390.479034,221.595 L384.688194,177.22122 C384.496134,175.7481 385.544214,174.38652 387.016674,174.1938 L452.666874,165.627 C454.139994,165.43494 455.502234,166.48236 455.694294,167.95548 L461.484474,212.32926 C461.676534,213.80172 460.629114,215.16396 459.156654,215.35602" id="Fill-161" fill="#263238"></path>
                <path d="M414.511878,155.182434 L410.595438,162.804774 L422.064918,163.330134 C422.064918,163.330134 425.013798,158.095014 420.577938,153.047334 L414.511878,155.182434 Z" id="Fill-163" fill="#C35F54"></path>
                <path d="M414.978234,168.695142 L421.802634,167.757282 L422.064654,163.330002 L410.595174,162.804642 L410.774034,165.287562 C410.928474,167.424642 412.855674,168.986862 414.978234,168.695142" id="Fill-165" fill="#C35F54"></path>
                <path d="M406.473936,110.612832 C406.296396,111.554652 407.564256,115.012392 408.504756,116.366052 C409.444596,117.719712 424.899156,118.885272 426.891696,115.839372 C428.884896,112.793472 428.959476,107.378832 428.020296,105.574392 C427.079796,103.769292 406.850136,108.619632 406.473936,110.612832" id="Fill-167" fill="#FFFFFF"></path>
                <path d="M180.585702,73.209378 C178.655202,75.730578 176.552442,78.500598 174.627222,81.220458 C172.695402,83.973978 170.758302,86.718918 168.953202,89.523918 C165.318582,95.095638 161.949942,100.845558 159.585162,106.554558 C159.296742,107.264718 159.015582,107.972898 158.773362,108.674478 C158.638722,109.028238 158.526522,109.376058 158.420262,109.722558 L158.253942,110.243298 L158.173422,110.494758 L158.154942,110.566698 C157.989942,110.913198 157.898202,112.089318 158.025582,113.376978 C158.289582,116.024898 159.155502,119.157918 160.144182,122.236818 C162.193482,128.427618 164.900802,134.826978 167.639802,141.018438 L161.505762,144.900558 C156.939882,139.199478 152.979882,133.277958 149.628402,126.588858 C147.981702,123.213618 146.459742,119.735418 145.516602,115.494918 C145.075062,113.349918 144.719982,110.982498 145.227522,107.893698 L145.329822,107.321478 L145.418262,106.941318 L145.595802,106.198818 C145.711962,105.701178 145.834722,105.208818 145.973982,104.733618 C146.234682,103.762758 146.529042,102.823578 146.833302,101.891658 C149.343942,94.500978 152.824122,87.986778 156.594702,81.739218 C158.511342,78.637878 160.480122,75.592638 162.594102,72.656298 C164.724582,69.693558 166.793022,66.860178 169.235022,63.939018 L180.585702,73.209378 Z" id="Fill-169" fill="#FFFFFF"></path>
                <path d="M165.999042,138.800442 L172.310622,142.150602 L165.054582,150.646122 C165.054582,150.646122 160.525662,147.581742 160.321062,142.903662 L165.999042,138.800442 Z" id="Fill-171" fill="#FFC3BD"></path>
                <polygon id="Fill-173" fill="#FFC3BD" points="180.803238 147.3879 173.027778 153.55626 165.054978 150.64566 172.310358 142.1508"></polygon>
                <path d="M275.043384,120.603912 L282.497424,124.450392 L281.841384,127.140552 L275.814924,133.151172 C275.814924,133.151172 271.493244,129.801012 271.592244,125.118972 L275.043384,120.603912 Z" id="Fill-175" fill="#FFC3BD"></path>
                <polygon id="Fill-177" fill="#C35F54" points="276.124266 121.628958 282.948666 120.351858 287.340966 122.225598 284.415846 122.720598 282.497886 124.449798"></polygon>
                <path d="M289.970406,133.998348 L282.555966,135.586968 C281.781126,135.753288 280.973286,135.655608 280.260486,135.309768 L275.814726,133.151568 L281.841846,127.140288 L285.803826,125.899488 L290.770986,131.590668 C291.508866,132.436128 291.067986,133.763388 289.970406,133.998348" id="Fill-179" fill="#FFC3BD"></path>
                <path d="M207.89934,24.60348 C208.06302,25.40802 208.62204,25.97364 209.14806,25.86672 C209.67342,25.7598 209.96778,25.02126 209.8041,24.21672 C209.64042,23.41152 209.08206,22.84656 208.55604,22.95348 C208.02936,23.05974 207.73566,23.79894 207.89934,24.60348" id="Fill-181" fill="#263238"></path>
                <path d="M208.548054,25.988688 C208.548054,25.988688 211.321374,30.258888 213.790434,32.089068 C212.636754,33.706728 210.093114,33.591228 210.093114,33.591228 L208.548054,25.988688 Z" id="Fill-183" fill="#FFC3BD"></path>
                <path d="M204.045402,20.734362 C203.928582,20.734362 203.811102,20.692122 203.718042,20.606322 C203.522682,20.425482 203.510142,20.120562 203.691642,19.924542 C205.502022,17.965662 207.699162,18.313482 207.793542,18.329322 C208.056222,18.374202 208.233102,18.623022 208.188222,18.885702 C208.142682,19.147722 207.891222,19.322622 207.633822,19.280382 C207.561882,19.269162 205.843902,19.017042 204.399162,20.579262 C204.304782,20.682222 204.175422,20.734362 204.045402,20.734362" id="Fill-185" fill="#263238"></path>
                <path d="M186.129966,38.811762 C187.516626,45.884982 188.354166,55.684662 183.405486,60.404322 C183.405486,60.404322 185.338626,67.579182 198.481206,67.579182 C212.933226,67.579182 205.433646,61.282122 205.433646,61.282122 C199.426986,59.418282 199.479126,52.575402 200.853246,47.079582 L186.129966,38.811762 Z" id="Fill-187" fill="#FFC3BD"></path>
                <path d="M181.272498,65.235126 C180.093078,63.340926 180.478518,57.594966 181.908738,56.660406 C184.218078,55.150986 193.712838,55.325226 206.303658,59.000766 C204.606138,64.489326 207.378798,67.579446 207.378798,67.579446 L181.272498,65.235126 Z" id="Fill-189" fill="#FFFFFF"></path>
                <path d="M170.772756,75.416418 C166.282116,79.843698 164.970036,88.937178 165.462396,95.129958 C166.572516,93.250938 167.745996,91.371918 168.956436,89.529858 C170.760216,86.717598 172.690056,83.968038 174.632436,81.218478 C175.174296,80.461458 175.729356,79.691898 176.284416,78.922998 C176.397936,78.430638 176.498916,77.938938 176.588016,77.459778 L170.772756,75.416418 Z" id="Fill-191" fill="#AFD3FC"></path>
                <path d="M140.515254,345.727074 C140.613594,345.748194 140.704014,345.777894 140.783874,345.815514 C140.965374,345.902634 141.078894,346.030674 141.131694,346.206894 C141.254454,346.618734 141.101994,346.748754 141.051174,346.790994 C140.531094,347.233194 138.601254,346.825974 137.240994,346.281474 C138.163674,345.956754 139.655934,345.540954 140.515254,345.727074 M138.941814,347.272134 C139.911354,347.482014 140.882214,347.537454 141.348834,347.140134 C141.544854,346.973154 141.742194,346.653054 141.570594,346.076214 C141.480174,345.772614 141.282174,345.546234 140.981214,345.402354 C139.675734,344.779314 136.675374,346.002294 136.547994,346.054434 C136.464834,346.088754 136.409394,346.169274 136.406754,346.259694 C136.403454,346.350114 136.454934,346.433274 136.535454,346.472214 C136.994814,346.693974 137.967654,347.060934 138.941814,347.272134" id="Fill-193" fill="#407BFF"></path>
                <path d="M139.323162,343.072092 C139.356162,343.079352 139.389822,343.088592 139.423482,343.100472 C139.706622,343.199472 139.702662,343.337412 139.701342,343.397472 C139.684842,344.044932 138.141762,345.348432 137.009862,345.876432 C137.293002,345.103572 137.938482,343.579632 138.766782,343.157232 C138.956202,343.060212 139.139022,343.031832 139.323162,343.072092 M136.586802,346.490232 C136.623762,346.498152 136.662042,346.496832 136.699662,346.485612 C137.792622,346.166832 140.131002,344.505612 140.159382,343.408692 C140.164002,343.210032 140.095362,342.849672 139.573302,342.668172 C139.235382,342.550032 138.894822,342.577752 138.558222,342.749352 C137.266602,343.408692 136.450182,346.086972 136.416522,346.200492 C136.392102,346.281012 136.413222,346.368132 136.472622,346.427532 C136.504302,346.459212 136.544562,346.480992 136.586802,346.490232" id="Fill-195" fill="#407BFF"></path>
                <path d="M211.857426,347.019222 C212.019126,347.019222 212.168286,347.035722 212.300286,347.071362 C212.511486,347.129442 212.658006,347.233722 212.749086,347.392122 C212.910786,347.676582 212.851386,347.817162 212.792646,347.898342 C212.343186,348.523362 209.899206,348.537882 208.102026,348.283782 C208.998306,347.823762 210.728166,347.019222 211.857426,347.019222 M210.324246,348.894282 C211.565046,348.894282 212.763606,348.723342 213.164886,348.166302 C213.306126,347.970942 213.416346,347.638962 213.145746,347.165082 C212.995266,346.899102 212.750406,346.718922 212.420406,346.629822 C210.811326,346.191582 207.432126,348.117462 207.288906,348.199962 C207.207066,348.247482 207.162186,348.341202 207.177366,348.435582 C207.192546,348.529302 207.265146,348.603882 207.358866,348.623022 C207.975306,348.745782 209.167926,348.894282 210.324246,348.894282" id="Fill-197" fill="#407BFF"></path>
                <path d="M209.762718,344.70777 C209.807598,344.70777 209.853798,344.70975 209.899998,344.71503 C210.312498,344.75661 210.338238,344.91897 210.346818,344.97243 C210.452418,345.62847 208.882278,347.27121 207.691638,347.98731 C207.815718,347.22633 208.159578,345.66807 208.967418,345.00543 C209.210958,344.80545 209.472318,344.70777 209.762718,344.70777 M207.403218,348.62751 C207.435558,348.62751 207.467238,348.62091 207.496938,348.60705 C208.664478,348.08367 210.975798,345.99213 210.798918,344.89917 C210.757338,344.64243 210.575178,344.32299 209.946198,344.25897 C209.476278,344.21145 209.051898,344.34411 208.676358,344.65167 C207.446778,345.66213 207.186738,348.26649 207.175518,348.37671 C207.167598,348.45789 207.203898,348.53709 207.269898,348.58461 C207.309498,348.61299 207.356358,348.62751 207.403218,348.62751" id="Fill-199" fill="#407BFF"></path>
                <polygon id="Fill-201" fill="#FFC3BD" points="196.772136 348.398226 206.440476 348.398226 207.403416 326.008386 197.735076 326.008386"></polygon>
                <polygon id="Fill-203" fill="#FFC3BD" points="125.982978 344.269068 135.306138 346.245108 143.764698 324.818868 134.441538 322.842828"></polygon>
                <path d="M136.16724,345.019224 L125.55114,342.721104 C125.16504,342.637284 124.77234,342.833304 124.60668,343.191684 L120.9219,351.186924 C120.53976,352.016544 121.04598,352.989384 121.9416,353.166924 C125.66202,353.906124 127.50936,354.078384 132.17754,355.088844 C135.04986,355.711224 141.5337,357.290604 145.5003,358.149264 C149.37912,358.989444 150.83376,355.198404 149.28672,354.491544 C142.35078,351.322224 139.45272,348.532404 137.57502,345.932004 C137.2371,345.463404 136.7322,345.141324 136.16724,345.019224" id="Fill-205" fill="#263238"></path>
                <path d="M206.376654,347.278668 L195.817974,347.278668 C195.423294,347.278668 195.080754,347.553228 194.994954,347.939328 L193.084914,356.533188 C192.887574,357.423528 193.563414,358.268328 194.476194,358.252488 C198.285054,358.187808 203.788794,357.964728 208.575774,357.964728 C214.173234,357.964728 216.155214,358.270308 222.719574,358.270308 C226.688154,358.270308 227.790354,354.257508 226.128474,353.893848 C218.565534,352.239228 215.241774,352.061688 208.705794,348.031728 C207.995634,347.594148 207.211554,347.278668 206.376654,347.278668" id="Fill-207" fill="#263238"></path>
                <polyline id="Fill-209" fill="#000000" points="134.436984 322.848306 143.764104 324.825006 139.399524 335.868126"></polyline>
                <path d="M203.690586,146.655894 C203.690586,146.655894 192.718086,220.543554 186.694926,248.224614 C180.098226,278.537094 141.178686,340.360614 141.178686,340.360614 L125.982846,335.064114 C125.982846,335.064114 152.153826,293.350794 157.689906,250.972194 C161.942286,218.420334 170.322306,146.655894 170.322306,146.655894 L203.690586,146.655894 Z" id="Fill-211" fill="#4A3D99"></path>
                <path d="M196.756032,172.981908 C184.068852,175.469448 185.411292,222.782208 186.938532,247.116408 C190.596912,229.915488 195.953472,196.816488 199.611852,173.323788 C198.769692,172.902708 197.821932,172.771368 196.756032,172.981908" id="Fill-213" fill="#000000"></path>
                <path d="M222.03489,146.655894 C222.03489,146.655894 223.36677,218.943714 222.31473,248.427894 C221.22111,279.095454 209.02167,342.701634 209.02167,342.701634 L194.35845,342.596034 C194.35845,342.596034 193.53015,280.887354 192.80085,250.768914 C192.00687,217.933914 188.04225,146.655894 188.04225,146.655894 L222.03489,146.655894 Z" id="Fill-215" fill="#4A3D99"></path>
                <path d="M223.356474,72.28452 C225.332514,82.72968 229.003434,111.94194 223.266054,154.41888 L167.314554,153.55626 C166.981914,146.14314 172.883634,105.86334 167.430054,70.1052 C166.779294,65.84292 169.780974,61.87038 174.054474,61.29618 C176.886534,60.91602 180.176634,60.55962 183.405354,60.40452 C190.012614,60.08574 199.579314,59.8752 205.387974,60.40518 C207.812814,60.62628 210.192774,60.97674 212.313354,61.35162 C217.904874,62.34096 222.301134,66.70488 223.356474,72.28452" id="Fill-217" fill="#263238"></path>
                <path d="M224.882724,82.661238 L215.461224,85.002918 C214.743804,93.802038 220.551144,103.764738 226.344624,111.372558 C226.384884,99.501138 225.695184,89.835438 224.882724,82.661238" id="Fill-219" fill="#000000"></path>
                <path d="M217.58121,69.352734 C219.48927,68.366034 221.83623,69.063654 222.89091,70.934754 C223.93371,72.785394 225.01413,74.668374 226.10643,76.484034 C227.88579,79.442814 229.67373,82.391034 231.54351,85.261374 C235.26129,90.989514 239.22261,96.582354 243.55485,101.236014 C244.09935,101.798994 244.64121,102.372534 245.19429,102.893274 L245.60679,103.295214 L245.91963,103.580334 C246.10179,103.769094 246.41199,103.990854 246.65091,104.198754 C247.74519,105.052794 249.08829,105.971514 250.47429,106.843374 C253.28721,108.579174 256.30539,110.281974 259.37241,111.928014 C265.50975,115.226034 271.86621,118.463994 278.13885,121.729014 L275.64999,128.548794 C268.53849,126.832794 261.63291,124.747854 254.74251,122.191014 C251.30259,120.898074 247.87323,119.516694 244.42143,117.823794 C242.68629,116.963814 240.94323,116.074134 239.11767,114.871614 C238.64511,114.541614 238.20621,114.274314 237.70725,113.882934 L236.97993,113.326554 L236.39253,112.836174 C235.59723,112.186734 234.85935,111.515514 234.11289,110.844294 C231.18645,108.148194 228.61839,105.282474 226.20477,102.362634 C223.77993,99.449394 221.57025,96.431214 219.43911,93.385974 C217.32975,90.326874 215.31015,87.231474 213.42717,84.059514 C213.40803,84.027834 213.38889,83.995494 213.37041,83.963814 C210.31527,78.790734 212.24445,72.112194 217.58121,69.352734" id="Fill-221" fill="#FFFFFF"></path>
                <path d="M180.71658,28.35261 C183.3315,38.11071 184.36638,43.95501 190.38822,48.01269 C199.44606,54.11571 210.72348,47.11113 211.07658,36.76827 C211.39404,27.45897 207.06378,13.06503 196.59222,11.09823 C186.2751,9.16113 178.101,18.59451 180.71658,28.35261" id="Fill-223" fill="#FFC3BD"></path>
                <path d="M200.986764,28.467252 C203.304024,25.049772 204.192384,19.796172 202.563504,17.273652 C204.087444,17.903952 215.071164,18.655692 210.762024,10.843272 C206.452224,3.031512 197.833284,0.876612 190.318524,3.031512 C192.157944,3.556872 193.976904,4.082232 193.976904,4.082232 C193.976904,4.082232 183.696744,3.346992 178.703844,7.498392 C180.224484,7.586172 181.541844,7.551192 181.541844,7.551192 C181.541844,7.551192 170.540304,12.695892 175.269864,16.637412 C167.544564,22.523292 172.772424,30.675612 185.513724,42.828852 C187.726044,44.828652 194.005284,44.097372 195.391944,42.902112 C194.571564,37.607592 199.672704,30.405012 200.986764,28.467252" id="Fill-225" fill="#263238"></path>
                <path d="M202.274226,21.81927 C204.560466,23.47455 207.372066,28.38825 208.685466,30.83223 C209.999526,33.27621 211.365726,32.96073 212.023086,33.93291 C212.679786,34.90509 215.386446,51.32787 212.495646,53.95599 C209.605506,56.58345 200.908026,52.43139 199.778106,49.40991 C198.648186,46.38777 200.720586,38.97795 201.286866,37.29627 C201.853806,35.61459 201.775266,31.38399 200.776026,28.51959 C199.778106,25.65585 202.274226,21.81927 202.274226,21.81927" id="Fill-227" fill="#263238"></path>
                <path d="M197.146026,28.922718 C197.914266,31.454478 199.595946,33.760518 201.523806,34.629738 C204.174366,35.824998 204.498426,32.742798 203.982306,29.791278 C203.517666,27.134118 202.756026,25.033998 200.634786,23.960838 C198.154506,22.706178 196.267566,26.027958 197.146026,28.922718" id="Fill-229" fill="#FFC3BD"></path>
                <path d="M284.661102,122.814252 C284.505342,122.754852 284.330442,122.770032 284.187882,122.857812 C283.459242,123.306612 281.210622,124.768512 280.919562,125.899752 C280.701102,126.745872 280.437762,128.444052 280.270782,129.597072 C280.200162,130.084812 280.763802,130.400292 281.147922,130.091412 C281.967642,129.432072 282.988002,128.308092 283.082382,126.751812 C283.177422,125.197512 284.364102,125.475372 285.323082,125.965752 C285.884082,126.252852 286.547382,125.849592 286.547382,125.219952 L286.547382,123.905892 C286.547382,123.682152 286.409442,123.481512 286.200222,123.401652 L284.661102,122.814252 Z" id="Fill-231" fill="#C35F54"></path>
            </g>
            <g id="Group-98" transform="translate(260.000000, 33.000000)">
                <path d="M45.6302,42.43 L45.6302,55.583 C45.6302,57.503 44.0592,59.075 42.1392,59.075 L10.0172,59.075 C8.0972,59.075 6.5262,57.503 6.5262,55.583 L6.5262,8.017 C6.5262,6.097 8.0972,4.527 10.0172,4.527 L42.1392,4.527 C44.0592,4.527 45.6302,6.097 45.6302,8.017 L45.6302,28.751" id="Fill-1" fill="#B4DFFF" transform="translate(26.078200, 31.801000) rotate(-345.000000) translate(-26.078200, -31.801000) "></path>
                <path d="M45.6302,42.43 L45.6302,55.583 C45.6302,57.503 44.0592,59.075 42.1392,59.075 L10.0172,59.075 C8.0972,59.075 6.5262,57.503 6.5262,55.583 L6.5262,8.017 C6.5262,6.097 8.0972,4.527 10.0172,4.527 L42.1392,4.527 C44.0592,4.527 45.6302,6.097 45.6302,8.017 L45.6302,28.751" id="Fill-1-Copy" fill="#FFFFFF"></path>
                <path d="M23.6551,52.5111 C24.3171,52.1071 24.9931,51.7221 25.7031,51.4071 C26.0421,51.2561 26.3891,51.1241 26.7421,51.0121 C27.0951,50.9011 27.5421,50.7241 27.9161,50.7481 C27.7801,50.6701 27.6431,50.5921 27.5071,50.5141 C27.4381,50.4051 27.4021,50.6891 27.3801,50.7501 C27.3381,50.8681 27.2881,50.9851 27.2401,51.1011 C27.1371,51.3541 27.0231,51.6151 26.9851,51.8871 C26.9241,52.3311 27.1731,52.6681 27.6351,52.6601 C28.7111,52.6411 29.6411,51.9101 30.5791,51.5081 C30.4581,51.5251 30.3361,51.5401 30.2141,51.5561 C30.3181,51.5851 30.4451,51.7051 30.5591,51.7461 C30.7211,51.8041 30.8941,51.8331 31.0671,51.8441 C31.4601,51.8691 31.8471,51.7811 32.2411,51.8181 C32.8481,51.8751 32.8441,50.9281 32.2411,50.8701 C31.8321,50.8311 31.4031,50.9621 31.0001,50.8841 C30.6211,50.8111 30.4821,50.5121 30.0631,50.7061 C29.6641,50.8911 29.3051,51.1481 28.8941,51.3171 C28.7021,51.3961 28.5061,51.4661 28.3081,51.5281 C28.1841,51.5671 28.0591,51.6031 27.9331,51.6351 C27.8181,51.6651 27.6211,51.6421 27.7831,51.7891 C27.8291,51.9021 27.8751,52.0131 27.9221,52.1241 C27.8881,51.4831 28.6021,50.8821 28.4181,50.2211 C28.2331,49.5541 27.3981,49.8491 26.9341,49.9701 C25.5931,50.3211 24.3531,50.9751 23.1761,51.6931 C22.6561,52.0091 23.1321,52.8291 23.6551,52.5111" id="Fill-6" fill="#E0E0E0"></path>
                <polygon id="Fill-8" fill="#E0E0E0" points="10.2542 12.6851 41.9012 12.6851 41.9012 11.6321 10.2542 11.6321"></polygon>
                <polygon id="Fill-10" fill="#E0E0E0" points="10.2542 20.1411 38.3232 20.1411 38.3232 19.0891 10.2542 19.0891"></polygon>
                <polygon id="Fill-11" fill="#E0E0E0" points="10.2542 27.5971 41.9012 27.5971 41.9012 26.5441 10.2542 26.5441"></polygon>
                <polygon id="Fill-12" fill="#E0E0E0" points="10.2552 35.0531 18.9522 35.0531 18.9522 34.0011 10.2552 34.0011"></polygon>
                <polygon id="Fill-13" fill="#E0E0E0" points="22.5992 35.0531 34.1732 35.0531 34.1732 34.0011 22.5992 34.0011"></polygon>
                <polygon id="Fill-14" fill="#E0E0E0" points="10.2542 42.5101 41.9012 42.5101 41.9012 41.4571 10.2542 41.4571"></polygon>
                <path d="M14.6028,46.0765 C12.4958,46.0765 10.7808,47.7915 10.7808,49.8985 C10.7808,52.0075 12.4958,53.7225 14.6028,53.7225 C16.7108,53.7225 18.4258,52.0075 18.4258,49.8985 C18.4258,47.7915 16.7108,46.0765 14.6028,46.0765 M14.6028,54.7735 C11.9148,54.7735 9.7278,52.5865 9.7278,49.8985 C9.7278,47.2105 11.9148,45.0235 14.6028,45.0235 C17.2908,45.0235 19.4778,47.2105 19.4778,49.8985 C19.4778,52.5865 17.2908,54.7735 14.6028,54.7735" id="Fill-15" fill="#407BFF"></path>
                <path d="M17.4803,49.8988 C17.4803,51.4878 16.1923,52.7758 14.6033,52.7758 C13.0143,52.7758 11.7263,51.4878 11.7263,49.8988 C11.7263,48.3098 13.0143,47.0218 14.6033,47.0218 C16.1923,47.0218 17.4803,48.3098 17.4803,49.8988" id="Fill-16" fill="#407BFF"></path>
                <path d="M33.7615,49.0365 C33.9305,47.5165 34.4905,46.3075 35.1825,45.2025 C35.8975,44.1165 36.7725,43.1565 37.5705,42.1365 C39.1845,40.1095 40.8535,38.1255 42.5265,36.1455 C45.9105,32.2165 49.3445,28.3255 53.0835,24.6775 C53.2925,24.4725 53.6285,24.4765 53.8335,24.6855 C54.0055,24.8625 54.0295,25.1295 53.9075,25.3315 C51.2055,29.8025 48.1985,34.0305 45.1415,38.2215 C43.5955,40.3015 42.0435,42.3775 40.4375,44.4105 C39.6255,45.4195 38.8895,46.4895 37.9945,47.4325 C37.0765,48.3585 36.0265,49.1795 34.5855,49.6895 C34.2625,49.8045 33.9075,49.6355 33.7935,49.3115 C33.7615,49.2215 33.7515,49.1255 33.7615,49.0365" id="Fill-17" fill="#407BFF"></path>
            </g>
        </g>
    </g>
</svg>